<svg width="24" height="24" viewBox="0 0 24 24" fill="none" xmlns="http://www.w3.org/2000/svg">
<g id="task-square-8535514">
<path id="Vector" d="M17.0319 20.4556H6.96795C6.06016 20.4546 5.18984 20.0935 4.54793 19.4516C3.90603 18.8097 3.54496 17.9394 3.54395 17.0316V6.96795C3.54496 6.06016 3.90603 5.18984 4.54793 4.54793C5.18984 3.90603 6.06016 3.54496 6.96795 3.54395H17.0319C17.9397 3.54496 18.8101 3.90603 19.452 4.54793C20.0939 5.18984 20.4549 6.06016 20.4559 6.96795V17.0319C20.4548 17.9397 20.0937 18.8099 19.4518 19.4517C18.8099 20.0936 17.9397 20.4546 17.0319 20.4556ZM6.96795 4.82427C6.39948 4.82477 5.85444 5.05082 5.45247 5.45279C5.0505 5.85476 4.82445 6.3998 4.82395 6.96826V17.0323C4.82445 17.6007 5.0505 18.1458 5.45247 18.5477C5.85444 18.9497 6.39948 19.1758 6.96795 19.1763H17.0319C17.6004 19.1758 18.1455 18.9497 18.5474 18.5477C18.9494 18.1458 19.1754 17.6007 19.1759 17.0323V6.96795C19.1754 6.39948 18.9494 5.85444 18.5474 5.45247C18.1455 5.0505 17.6004 4.82445 17.0319 4.82395L6.96795 4.82427Z" fill="black"/>
<path id="Vector_2" d="M11.642 10.1516C11.4722 10.1516 11.3094 10.0842 11.1894 9.96417C11.0694 9.84414 11.002 9.68136 11.002 9.51162C11.002 9.34188 11.0694 9.17909 11.1894 9.05907C11.3094 8.93905 11.4722 8.87162 11.642 8.87162H17.2481C17.4178 8.87162 17.5806 8.93905 17.7006 9.05907C17.8206 9.17909 17.8881 9.34188 17.8881 9.51162C17.8881 9.68136 17.8206 9.84414 17.7006 9.96417C17.5806 10.0842 17.4178 10.1516 17.2481 10.1516H11.642ZM11.642 13.9174C11.4722 13.9174 11.3094 13.85 11.1894 13.7299C11.0694 13.6099 11.002 13.4471 11.002 13.2774C11.002 13.1076 11.0694 12.9449 11.1894 12.8248C11.3094 12.7048 11.4722 12.6374 11.642 12.6374H17.2481C17.4178 12.6374 17.5806 12.7048 17.7006 12.8248C17.8206 12.9449 17.8881 13.1076 17.8881 13.2774C17.8881 13.4471 17.8206 13.6099 17.7006 13.7299C17.5806 13.85 17.4178 13.9174 17.2481 13.9174H11.642ZM7.56517 11.1359C7.40956 11.136 7.25932 11.079 7.14277 10.9759L6.08677 10.0479C5.96852 9.93357 5.89885 9.77807 5.89222 9.61369C5.8856 9.44932 5.94251 9.28871 6.05117 9.16519C6.15982 9.04167 6.31187 8.96474 6.47574 8.95035C6.63962 8.93597 6.80274 8.98524 6.93125 9.08794L7.54309 9.62586L9.48421 7.73498C9.60583 7.61654 9.76952 7.55127 9.93926 7.55352C10.109 7.55577 10.2709 7.62536 10.3893 7.74698C10.5078 7.8686 10.573 8.03228 10.5708 8.20202C10.5685 8.37177 10.499 8.53366 10.3773 8.6521L8.01189 10.9561C7.89208 11.0719 7.73181 11.1364 7.56517 11.1359ZM7.56517 14.8239C7.40956 14.824 7.25932 14.767 7.14277 14.6639L6.08677 13.7359C5.9629 13.623 5.88831 13.4659 5.87903 13.2985C5.86976 13.1311 5.92654 12.9667 6.03717 12.8408C6.1478 12.7148 6.30344 12.6373 6.47064 12.6248C6.63783 12.6124 6.80322 12.6661 6.93125 12.7743L7.54309 13.3119L9.48421 11.4211C9.54443 11.3624 9.61561 11.3162 9.69369 11.2851C9.77177 11.2539 9.85521 11.2385 9.93926 11.2396C10.0233 11.2407 10.1063 11.2584 10.1835 11.2916C10.2608 11.3248 10.3307 11.3728 10.3893 11.4331C10.448 11.4933 10.4942 11.5645 10.5253 11.6425C10.5565 11.7206 10.5719 11.8041 10.5708 11.8881C10.5697 11.9722 10.552 12.0552 10.5188 12.1324C10.4856 12.2096 10.4376 12.2795 10.3773 12.3382L8.01189 14.6422C7.89238 14.7587 7.73208 14.8239 7.56517 14.8239Z" fill="#2C277F"/>
</g>
</svg>
