<svg width="24" height="24" viewBox="0 0 24 24" fill="none" xmlns="http://www.w3.org/2000/svg">
<g id="fluent-mdl2:new-team-project" clip-path="url(#clip0_5_508)">
<path id="Vector" d="M7.125 3C7.47656 3 7.77734 3.03516 8.02734 3.10547C8.27734 3.17578 8.50391 3.26953 8.70703 3.38672C8.91016 3.50391 9.08984 3.625 9.24609 3.75C9.40234 3.875 9.55859 3.99609 9.71484 4.11328C9.87109 4.23047 10.043 4.32031 10.2305 4.38281C10.418 4.44531 10.6328 4.48437 10.875 4.5H22.5C22.7109 4.5 22.9062 4.53906 23.0859 4.61719C23.2656 4.69531 23.4219 4.80078 23.5547 4.93359C23.6875 5.06641 23.7969 5.22656 23.8828 5.41406C23.9688 5.60156 24.0078 5.79688 24 6V16.5H22.5V6H10.875C10.6328 6 10.4219 6.03516 10.2422 6.10547C10.0625 6.17578 9.89062 6.26953 9.72656 6.38672C9.5625 6.50391 9.40234 6.625 9.24609 6.75C9.08984 6.875 8.91406 6.99609 8.71875 7.11328C8.52344 7.23047 8.29688 7.32031 8.03906 7.38281C7.78125 7.44531 7.47656 7.48438 7.125 7.5H1.5V19.5H13.5V21H0V4.5C0 4.28906 0.0390625 4.09375 0.117188 3.91406C0.195312 3.73438 0.300781 3.57812 0.433594 3.44531C0.566406 3.3125 0.726562 3.20312 0.914062 3.11719C1.10156 3.03125 1.29688 2.99219 1.5 3H7.125ZM7.125 6C7.3125 6 7.47656 5.98438 7.61719 5.95312C7.75781 5.92188 7.88672 5.87109 8.00391 5.80078C8.12109 5.73047 8.23438 5.65234 8.34375 5.56641C8.45312 5.48047 8.57812 5.375 8.71875 5.25C8.58594 5.13281 8.46484 5.03125 8.35547 4.94531C8.24609 4.85937 8.12891 4.78125 8.00391 4.71094C7.87891 4.64062 7.75 4.58984 7.61719 4.55859C7.48438 4.52734 7.32031 4.50781 7.125 4.5H1.5V6H7.125ZM21 19.5H24V21H21V24H19.5V21H16.5V19.5H19.5V16.5H21V19.5ZM17.0273 11.0273L12 16.0664L6.97266 11.0273L8.02734 9.97266L12 13.9336L15.9727 9.97266L17.0273 11.0273Z" fill="#2C277F"/>
</g>
<defs>
<clipPath id="clip0_5_508">
<rect width="24" height="24" fill="white"/>
</clipPath>
</defs>
</svg>
