<svg width="24" height="24" viewBox="0 0 24 24" fill="none" xmlns="http://www.w3.org/2000/svg">
<g id="verify-8535608">
<path id="Vector" d="M12 20.7735C11.6772 20.7751 11.3627 20.6714 11.1042 20.478C10.8457 20.2846 10.6573 20.0122 10.5677 19.7021L10.1466 18.272C10.1368 18.2389 10.119 18.2086 10.0949 18.1838C10.0707 18.159 10.0409 18.1404 10.008 18.1297C9.97509 18.119 9.94007 18.1165 9.90596 18.1223C9.87185 18.1282 9.83967 18.1422 9.8122 18.1632L8.63172 19.072C8.37627 19.2688 8.06401 19.3775 7.74163 19.382C7.41924 19.3866 7.10405 19.2866 6.84319 19.0971C6.58232 18.9077 6.3898 18.6388 6.29441 18.3308C6.19901 18.0229 6.20587 17.6923 6.31396 17.3885L6.81348 15.9847C6.82509 15.952 6.82857 15.9171 6.82363 15.8828C6.81868 15.8485 6.80546 15.816 6.7851 15.788C6.76474 15.7599 6.73786 15.7373 6.70678 15.722C6.67571 15.7067 6.64138 15.6992 6.60676 15.7002L5.11748 15.744C4.79519 15.753 4.47865 15.6574 4.21521 15.4715C3.95177 15.2856 3.75557 15.0195 3.65595 14.7128C3.55633 14.4062 3.55864 14.0755 3.66254 13.7703C3.76644 13.4651 3.96634 13.2017 4.23236 13.0196L5.46148 12.1773C5.49012 12.1578 5.51356 12.1315 5.52975 12.1008C5.54595 12.0702 5.55441 12.036 5.55441 12.0013C5.55441 11.9666 5.54595 11.9325 5.52975 11.9018C5.51356 11.8711 5.49012 11.8449 5.46148 11.8253L4.23236 10.9831C3.96634 10.8009 3.76644 10.5375 3.66254 10.2323C3.55864 9.92708 3.55633 9.59644 3.65595 9.2898C3.75557 8.98316 3.95177 8.717 4.21521 8.53112C4.47865 8.34525 4.79519 8.24964 5.11748 8.2586L6.60676 8.29988C6.64138 8.30084 6.67571 8.29335 6.70678 8.27806C6.73786 8.26277 6.76474 8.24014 6.7851 8.21212C6.80546 8.1841 6.81868 8.15155 6.82363 8.11727C6.82857 8.08299 6.82509 8.04803 6.81348 8.0154L6.31396 6.61156C6.20587 6.3078 6.19901 5.97721 6.29441 5.66923C6.3898 5.36125 6.58232 5.09242 6.84319 4.90294C7.10405 4.71346 7.41924 4.6135 7.74163 4.61803C8.06401 4.62255 8.37627 4.73131 8.63172 4.92804L9.8122 5.83684C9.83967 5.85788 9.87185 5.87192 9.90596 5.87775C9.94007 5.88359 9.97509 5.88105 10.008 5.87034C10.0409 5.85963 10.0707 5.84108 10.0949 5.81629C10.119 5.7915 10.1368 5.76122 10.1466 5.72804L10.5677 4.29892C10.6588 3.98963 10.8475 3.71813 11.1057 3.52502C11.3639 3.3319 11.6776 3.22754 12 3.22754C12.3225 3.22754 12.6362 3.3319 12.8944 3.52502C13.1526 3.71813 13.3413 3.98963 13.4324 4.29892L13.8535 5.72804C13.8633 5.76122 13.8811 5.7915 13.9052 5.81629C13.9294 5.84108 13.9592 5.85963 13.9921 5.87034C14.025 5.88105 14.06 5.88359 14.0941 5.87775C14.1282 5.87192 14.1604 5.85788 14.1879 5.83684L15.3684 4.92804C15.6238 4.73131 15.9361 4.62255 16.2584 4.61803C16.5808 4.6135 16.896 4.71346 17.1569 4.90294C17.4178 5.09242 17.6103 5.36125 17.7057 5.66923C17.8011 5.97721 17.7942 6.3078 17.6861 6.61156L17.1866 8.0154C17.175 8.04803 17.1715 8.08299 17.1765 8.11727C17.1814 8.15155 17.1946 8.1841 17.215 8.21212C17.2353 8.24014 17.2622 8.26277 17.2933 8.27806C17.3244 8.29335 17.3587 8.30084 17.3933 8.29988L18.8826 8.2586C19.2049 8.24964 19.5214 8.34525 19.7849 8.53112C20.0483 8.717 20.2445 8.98316 20.3441 9.2898C20.4438 9.59644 20.4414 9.92708 20.3375 10.2323C20.2336 10.5375 20.0337 10.8009 19.7677 10.9831L18.5386 11.8253C18.51 11.8449 18.4865 11.8711 18.4703 11.9018C18.4541 11.9325 18.4457 11.9666 18.4457 12.0013C18.4457 12.036 18.4541 12.0702 18.4703 12.1008C18.4865 12.1315 18.51 12.1578 18.5386 12.1773L19.7677 13.0196C20.0337 13.2017 20.2336 13.4651 20.3375 13.7703C20.4414 14.0755 20.4438 14.4062 20.3441 14.7128C20.2445 15.0195 20.0483 15.2856 19.7849 15.4715C19.5214 15.6574 19.2049 15.753 18.8826 15.744L17.3933 15.7028C17.3587 15.7018 17.3244 15.7093 17.2933 15.7246C17.2622 15.7399 17.2353 15.7625 17.215 15.7905C17.1946 15.8185 17.1814 15.8511 17.1765 15.8854C17.1715 15.9196 17.175 15.9546 17.1866 15.9872L17.6861 17.3911C17.7933 17.6947 17.7995 18.0248 17.7037 18.3322C17.608 18.6396 17.4154 18.9078 17.1548 19.0968C16.8941 19.2858 16.5794 19.3856 16.2574 19.3811C15.9355 19.3766 15.6237 19.2682 15.3684 19.072L14.1879 18.1632C14.1604 18.1422 14.1282 18.1282 14.0941 18.1223C14.06 18.1165 14.025 18.119 13.9921 18.1297C13.9592 18.1404 13.9294 18.159 13.9052 18.1838C13.8811 18.2086 13.8633 18.2389 13.8535 18.272L13.4324 19.7012C13.3429 20.0115 13.1546 20.2841 12.8961 20.4776C12.6376 20.6712 12.323 20.775 12 20.7735ZM9.94212 16.84C10.2646 16.8399 10.5784 16.9443 10.8366 17.1374C11.0947 17.3305 11.2835 17.6021 11.3744 17.9114L11.7956 19.3405C11.8085 19.3847 11.8355 19.4235 11.8723 19.4511C11.9092 19.4787 11.954 19.4936 12 19.4936C12.0461 19.4936 12.0909 19.4787 12.1277 19.4511C12.1646 19.4235 12.1915 19.3847 12.2045 19.3405L12.6256 17.9114C12.6941 17.6786 12.8183 17.466 12.9875 17.2921C13.1567 17.1181 13.3657 16.988 13.5964 16.913C13.8272 16.838 14.0728 16.8204 14.3119 16.8618C14.551 16.9031 14.7764 17.002 14.9687 17.1501L16.1492 18.0586C16.1856 18.0867 16.2302 18.1023 16.2762 18.1029C16.3223 18.1036 16.3673 18.0893 16.4045 18.0623C16.4418 18.0352 16.4693 17.9968 16.4829 17.9528C16.4965 17.9088 16.4955 17.8616 16.48 17.8183L15.9805 16.416C15.8991 16.1875 15.8747 15.9425 15.9093 15.7023C15.9439 15.4622 16.0365 15.2341 16.1792 15.0378C16.3218 14.8414 16.5101 14.6828 16.7278 14.5757C16.9454 14.4685 17.186 14.416 17.4285 14.4228L18.9181 14.464C18.9641 14.4653 19.0093 14.4517 19.0469 14.4251C19.0844 14.3986 19.1124 14.3606 19.1267 14.3169C19.1409 14.2731 19.1406 14.226 19.1258 14.1824C19.111 14.1389 19.0825 14.1013 19.0445 14.0752L17.8154 13.233C17.6151 13.0959 17.4512 12.9121 17.338 12.6974C17.2248 12.4828 17.1656 12.2437 17.1656 12.001C17.1656 11.7583 17.2248 11.5192 17.338 11.3046C17.4512 11.0899 17.6151 10.9061 17.8154 10.769L19.0445 9.92676C19.0834 9.90107 19.1127 9.86337 19.1281 9.81942C19.1435 9.77547 19.1441 9.72768 19.1298 9.68337C19.1154 9.63906 19.087 9.60067 19.0488 9.57406C19.0105 9.54745 18.9646 9.5341 18.9181 9.53604L17.4285 9.57732C17.186 9.58404 16.9454 9.53154 16.7278 9.42439C16.5101 9.31723 16.3218 9.15863 16.1792 8.96232C16.0365 8.76602 15.9439 8.53791 15.9093 8.29775C15.8747 8.0576 15.8991 7.81262 15.9805 7.58404L16.48 6.1818C16.4955 6.13843 16.4965 6.09123 16.4829 6.04725C16.4693 6.00327 16.4418 5.96488 16.4045 5.93782C16.3673 5.91077 16.3223 5.8965 16.2762 5.89716C16.2302 5.89782 16.1856 5.91337 16.1492 5.94148L14.9687 6.84996C14.7764 6.99803 14.551 7.09701 14.3119 7.13832C14.0728 7.17963 13.8272 7.16204 13.5964 7.08706C13.3657 7.01208 13.1567 6.88197 12.9875 6.708C12.8183 6.53404 12.6941 6.32146 12.6256 6.08868L12.2045 4.65956C12.1915 4.61538 12.1646 4.5766 12.1277 4.549C12.0909 4.52141 12.0461 4.5065 12 4.5065C11.954 4.5065 11.9092 4.52141 11.8723 4.549C11.8355 4.5766 11.8085 4.61538 11.7956 4.65956L11.3744 6.08868C11.3059 6.32146 11.1817 6.53404 11.0126 6.708C10.8434 6.88197 10.6344 7.01208 10.4036 7.08706C10.1729 7.16204 9.92728 7.17963 9.68817 7.13832C9.44907 7.09701 9.22363 6.99803 9.0314 6.84996L7.85092 5.94148C7.81446 5.91337 7.76988 5.89782 7.72384 5.89716C7.67781 5.8965 7.6328 5.91077 7.59555 5.93782C7.5583 5.96488 7.53081 6.00327 7.5172 6.04725C7.50359 6.09123 7.50459 6.13843 7.52004 6.1818L8.01956 7.58404C8.10093 7.81262 8.12537 8.0576 8.09076 8.29775C8.05615 8.53791 7.96353 8.76602 7.82092 8.96232C7.67832 9.15863 7.49002 9.31723 7.27233 9.42439C7.05463 9.53154 6.8141 9.58404 6.57156 9.57732L5.08196 9.53604C5.03597 9.53477 4.99081 9.54842 4.95322 9.57494C4.91563 9.60146 4.88764 9.63944 4.87341 9.68319C4.85919 9.72693 4.85951 9.77411 4.87431 9.81767C4.88912 9.86122 4.91762 9.89882 4.95556 9.92484L6.18468 10.7671C6.38498 10.9041 6.54885 11.088 6.66208 11.3026C6.77531 11.5173 6.83449 11.7564 6.83449 11.9991C6.83449 12.2418 6.77531 12.4808 6.66208 12.6955C6.54885 12.9102 6.38498 13.094 6.18468 13.2311L4.95556 14.0733C4.91671 14.099 4.88734 14.1367 4.87195 14.1807C4.85655 14.2246 4.85598 14.2724 4.87031 14.3167C4.88465 14.361 4.9131 14.3994 4.95132 14.426C4.98954 14.4526 5.03543 14.466 5.08196 14.464L6.57156 14.4228C6.8141 14.416 7.05463 14.4685 7.27233 14.5757C7.49002 14.6828 7.67832 14.8414 7.82092 15.0378C7.96353 15.2341 8.05615 15.4622 8.09076 15.7023C8.12537 15.9425 8.10093 16.1875 8.01956 16.416L7.52004 17.8183C7.50459 17.8616 7.50359 17.9088 7.5172 17.9528C7.53081 17.9968 7.5583 18.0352 7.59555 18.0623C7.6328 18.0893 7.67781 18.1036 7.72384 18.1029C7.76988 18.1023 7.81446 18.0867 7.85092 18.0586L9.0314 17.1501C9.2924 16.949 9.61263 16.84 9.94212 16.84Z" fill="#2C277F"/>
<path id="Vector_2" d="M10.6486 14.8092C10.6352 14.8092 10.6214 14.8092 10.608 14.8092C10.5223 14.8037 10.4387 14.781 10.362 14.7425C10.2853 14.704 10.2172 14.6505 10.1616 14.5852L8.0854 12.1503C7.97507 12.0212 7.92056 11.8535 7.93385 11.6842C7.94714 11.5148 8.02715 11.3577 8.15628 11.2474C8.28541 11.1371 8.45308 11.0826 8.6224 11.0958C8.79173 11.1091 8.94883 11.1892 9.05916 11.3183L10.7072 13.2504L14.9974 9.35668C15.1237 9.24692 15.2879 9.19097 15.4549 9.20082C15.622 9.21066 15.7785 9.28552 15.891 9.40936C16.0035 9.5332 16.063 9.69617 16.0568 9.86337C16.0506 10.0306 15.9792 10.1887 15.8579 10.3039L11.079 14.6431C10.9612 14.75 10.8077 14.8092 10.6486 14.8092Z" fill="#2C277F"/>
</g>
</svg>
