<svg width="70" height="66" viewBox="0 0 70 66" fill="none" xmlns="http://www.w3.org/2000/svg">
<g id="Logo 1" clip-path="url(#clip0_429_1751)">
<path id="Vector" d="M26.4507 49.9622C25.9813 50.8325 25.5119 51.7027 25.0413 52.5716C23.5215 55.3792 22.003 58.1869 20.4833 60.9945C19.7626 62.3261 19.0407 63.659 18.3201 64.9905C18.2943 65.0387 18.2686 65.0869 18.2404 65.1337C18.211 65.1833 18.1693 65.2081 18.1142 65.2067C18.0566 65.2039 17.9977 65.2067 17.9401 65.2067C12.045 65.2067 6.1499 65.2067 0.254774 65.2039C0.170208 65.2039 0.0513251 65.2645 0.00597798 65.1612C-0.0283387 65.0841 0.0648067 64.9988 0.106477 64.9217C1.38355 62.5601 2.66062 60.1986 3.93892 57.8385C5.50646 54.9427 7.074 52.0483 8.64031 49.1526C10.3892 45.9222 12.1369 42.6918 13.8846 39.4614C14.9938 37.4111 16.103 35.3608 17.2134 33.3119C17.2514 33.2416 17.293 33.1742 17.3408 33.0916C17.4107 33.1397 17.4352 33.21 17.4683 33.2692C17.9781 34.2097 18.4868 35.1515 18.9966 36.0934C20.7272 39.2921 22.4589 42.4908 24.1895 45.6895C24.7643 46.7497 25.3391 47.81 25.9139 48.8703C25.9445 48.9254 25.9788 48.9777 26.0107 49.0314C26.0377 49.1622 26.1198 49.2586 26.1737 49.3729C26.2644 49.5698 26.3857 49.7502 26.4482 49.9636L26.4507 49.9622Z" fill="#010101"/>
<path id="Vector_2" d="M53.8587 35.2479C54.6761 36.7543 55.4936 38.2593 56.3099 39.7657C57.9203 42.7386 59.5418 45.7046 61.135 48.6885C61.9856 50.2817 62.8435 51.8679 63.7002 53.4556C65.5006 56.792 67.3071 60.1229 69.1124 63.4565C69.3796 63.9509 69.648 64.4452 69.9152 64.9395C69.9373 64.9795 69.9618 65.018 69.9802 65.0593C70.0194 65.1447 70.0035 65.2108 69.9103 65.2053C69.8527 65.2025 69.7939 65.2053 69.7363 65.2053C63.6929 65.2053 57.6482 65.2053 51.6048 65.2053C51.3094 65.2053 51.3731 65.2549 51.215 64.9629C49.9919 62.7075 48.7712 60.4492 47.5493 58.1924C47.2343 57.6099 46.9193 57.0288 46.6043 56.4464C46.5737 56.3899 46.5467 56.3335 46.5186 56.2756C46.5602 56.2481 46.5982 56.2095 46.6423 56.1916C46.9206 56.0787 47.1767 55.9217 47.4059 55.7124C47.4439 55.678 47.488 55.6532 47.5297 55.6243C47.5603 55.6794 47.5922 55.7345 47.6228 55.7896C49.0384 58.4044 50.4539 61.0193 51.8695 63.6342C51.9296 63.7457 51.9908 63.8559 52.0521 63.9688C52.1428 63.9096 52.1453 63.8063 52.1735 63.7237C52.7679 61.9914 53.3586 60.2578 53.9494 58.5242C54.0682 58.1758 54.1834 57.8261 54.2999 57.4763C54.3562 57.4405 54.3648 57.3731 54.3857 57.3125C54.8808 55.8625 55.3772 54.4126 55.8711 52.9612C55.9716 52.6666 56.0905 52.3802 56.1567 52.0717C56.1665 52.0359 56.1763 52.0001 56.1885 51.9657C56.9092 49.8699 57.6237 47.7714 58.3002 45.6564C58.3603 45.4705 58.3456 45.3356 58.2549 45.169C56.9165 42.7097 55.5831 40.2463 54.2496 37.7829C53.866 37.0737 53.4836 36.3632 53.1012 35.6527C53.1221 35.6376 53.1417 35.6183 53.165 35.6086C53.3782 35.5274 53.5829 35.4255 53.7692 35.2823C53.7949 35.2616 53.8317 35.2575 53.8623 35.2451L53.8587 35.2479Z" fill="#030303"/>
<path id="Vector_3" d="M28.9888 23.8997C28.5991 23.1823 28.2093 22.4663 27.8196 21.7489C27.1443 20.5055 26.4702 19.2621 25.7961 18.0187C25.7655 17.9622 25.741 17.903 25.7054 17.8507C25.6478 17.7653 25.6527 17.6909 25.7054 17.6C25.9064 17.2462 26.1025 16.8882 26.2962 16.5288C27.4924 14.3201 28.6885 12.1101 29.8847 9.90002C31.3873 7.12404 32.8899 4.34806 34.3925 1.57346C34.5604 1.26227 34.7283 0.951071 34.8987 0.641252C34.9268 0.588927 34.9403 0.518701 35.0139 0.498047C35.0764 0.543487 35.1033 0.624728 35.1413 0.693577C36.1782 2.60757 37.215 4.52156 38.2507 6.43555C39.5547 8.84526 40.8563 11.255 42.1615 13.6633C42.9484 15.1132 43.7389 16.5604 44.5282 18.0104C44.5588 18.0655 44.5833 18.1247 44.6115 18.1825C44.5478 18.2472 44.4632 18.261 44.3872 18.2968C43.7352 18.6094 43.3099 19.1381 43.1383 19.9202C43.0893 20.1406 43.0991 20.3636 43.0844 20.5853C42.8712 20.5454 42.6591 20.5041 42.4459 20.4683C42.2486 20.4352 42.05 20.416 41.8539 20.3802C41.0916 20.2438 40.328 20.1075 39.567 19.9629C39.0596 19.8665 38.5473 19.8005 38.0472 19.6586C37.9675 19.6366 37.8867 19.6146 37.8033 19.6393C37.7898 19.7371 37.8511 19.7977 37.8867 19.8679C38.3242 20.7368 38.763 21.6043 39.203 22.4704C39.3218 22.7045 39.2802 22.7072 39.5486 22.6274C40.7999 22.2597 42.0525 21.8948 43.305 21.5286C43.4313 21.7089 43.5575 21.8907 43.6825 22.0725C43.6923 22.0862 43.6911 22.1083 43.6948 22.1262C43.6457 22.1385 43.5979 22.1496 43.5489 22.1647C42.5145 22.4676 41.4801 22.7706 40.4457 23.0749C40.2055 23.1451 39.964 23.2153 39.7238 23.2869C39.6564 23.3076 39.6429 23.3406 39.6748 23.4081C39.7054 23.4742 39.7398 23.5389 39.7716 23.6036C40.7313 25.4984 41.6897 27.3945 42.6493 29.2892C42.6101 29.3222 42.5746 29.3608 42.5329 29.3869C42.403 29.4654 42.278 29.5508 42.1689 29.6637C42.1395 29.694 42.1003 29.7105 42.0647 29.7326C41.0646 27.7566 40.0633 25.7806 39.0632 23.8047C39.0301 23.74 38.9946 23.6766 38.9652 23.6105C38.937 23.5486 38.8941 23.5403 38.8414 23.5527C38.801 23.5623 38.7605 23.572 38.7201 23.5844C38.1428 23.7537 37.5656 23.9231 36.9883 24.0925C35.6414 24.4863 34.2944 24.8815 32.9475 25.2753C32.8654 25.0674 32.8372 24.8429 32.798 24.6226C32.8213 24.6116 32.8433 24.5964 32.8666 24.5896C34.5445 24.098 36.2223 23.6078 37.9001 23.1162C38.1085 23.0556 38.3181 22.9964 38.5264 22.9344C38.5803 22.9193 38.5938 22.8862 38.5693 22.8325C38.5473 22.783 38.5227 22.7334 38.4982 22.6852C38.1244 21.9472 37.7506 21.2105 37.3768 20.4724C37.2248 20.1722 37.0716 19.8734 36.9221 19.5719C36.8792 19.4837 36.8265 19.4328 36.7321 19.4177C36.4196 19.3681 36.1095 19.3047 35.7982 19.251C35.0519 19.1202 34.3055 18.9963 33.5603 18.8614C32.6411 18.6961 31.7244 18.524 30.8052 18.356C29.5673 18.1288 28.3282 17.903 27.0904 17.6785C27.0695 17.6744 27.0462 17.6868 27.0168 17.6937C27.0364 17.7942 27.0904 17.8672 27.132 17.9457C28.0206 19.5884 28.9104 21.2311 29.7989 22.8739C29.8504 22.9689 29.8982 23.068 29.9472 23.1644C29.9007 23.2222 29.8357 23.2443 29.7757 23.2746C29.5305 23.3985 29.3161 23.572 29.1212 23.7758C29.0783 23.8198 29.0329 23.8598 28.9888 23.9011V23.8997Z" fill="#030303"/>
<path id="Vector_4" d="M47.5289 55.6257C47.4872 55.6546 47.4431 55.6794 47.4051 55.7138C47.1759 55.9245 46.9198 56.0801 46.6416 56.193C46.5974 56.2109 46.5582 56.2481 46.5178 56.277C46.4271 56.288 46.3364 56.2935 46.2469 56.3114C44.9784 56.5758 43.6609 55.6973 43.3214 54.1923C43.118 53.289 43.2773 52.4573 43.7773 51.7096C43.8264 51.6352 43.8754 51.5595 43.9232 51.4851C43.9514 51.4672 43.9845 51.4562 44.0078 51.4314C44.2455 51.1739 44.5164 50.9743 44.8166 50.8214C44.8461 50.8063 44.8706 50.7815 44.8975 50.7608C44.9613 50.7429 45.025 50.7237 45.0887 50.7058C45.4429 50.6052 45.7996 50.5571 46.166 50.6232C46.3793 50.6617 46.5815 50.7388 46.7874 50.8008C46.9124 50.9027 47.0436 50.9867 47.1943 51.0307C47.2519 51.0844 47.3071 51.1395 47.3659 51.1905C47.9333 51.6958 48.2667 52.3485 48.3525 53.1595C48.3721 53.3454 48.3635 53.5327 48.3795 53.7172C48.3157 53.8356 48.3353 53.9761 48.3047 54.1028C48.2066 54.6246 47.986 55.0721 47.6637 55.4605C47.6184 55.5142 47.5755 55.5692 47.5313 55.6243L47.5289 55.6257Z" fill="#A67F2D"/>
<path id="Vector_5" d="M32.7968 24.6204C32.836 24.8408 32.8642 25.0652 32.9463 25.2731C32.9402 25.2993 32.9267 25.3268 32.9279 25.353C32.9475 25.678 32.912 25.9974 32.8483 26.3127C32.76 26.4945 32.6755 26.679 32.6179 26.8759C32.4953 27.0536 32.3727 27.2312 32.2502 27.4088C32.1852 27.4281 32.1313 27.4722 32.081 27.519C31.8751 27.7076 31.6472 27.8508 31.391 27.9376C31.3347 27.9568 31.2832 27.983 31.2452 28.0353C31.1288 28.0092 31.0135 28.0463 30.8996 28.0601C29.8554 28.1799 28.8222 27.435 28.5329 26.2136C28.3565 25.4632 28.4655 24.754 28.8614 24.1096C28.9031 24.0407 28.9447 23.9705 28.9864 23.9017C29.0305 23.8604 29.0771 23.8204 29.1188 23.7764C29.3149 23.5712 29.5294 23.3991 29.7732 23.2751C29.8333 23.2448 29.8983 23.2228 29.9448 23.165C30.0257 23.1457 30.1066 23.1292 30.1875 23.1085C31.2795 22.8345 32.2551 23.4638 32.684 24.4043C32.7184 24.4786 32.7576 24.5502 32.7943 24.6218L32.7968 24.6204Z" fill="#A67F2D"/>
<path id="Vector_6" d="M31.2466 28.0352C31.2846 27.9815 31.3361 27.9553 31.3924 27.9374C31.6474 27.8507 31.8753 27.7075 32.0824 27.5188C32.1339 27.472 32.1866 27.428 32.2516 27.4087C32.2908 27.4803 32.3312 27.5505 32.3705 27.6221C33.4012 29.5251 34.4307 31.4267 35.4614 33.3297C36.3536 34.9779 37.2447 36.6261 38.1369 38.2744C38.1124 38.3556 38.045 38.3735 37.9849 38.3997C37.7226 38.5154 37.4849 38.6723 37.2876 38.9037C37.2545 38.9422 37.2091 38.9684 37.1687 38.9987C36.8954 38.4988 36.6208 38.0004 36.3487 37.4992C35.6624 36.2337 34.9663 34.9752 34.2971 33.7001C33.324 31.8467 32.3079 30.0236 31.3213 28.1812C31.2956 28.133 31.2723 28.0834 31.249 28.0352H31.2466Z" fill="#0D0C0C"/>
<path id="Vector_7" d="M43.0835 20.5874C43.0982 20.3657 43.0896 20.1426 43.1374 19.9223C43.309 19.1416 43.7343 18.6114 44.3863 18.2989C44.4623 18.2631 44.5456 18.2479 44.6106 18.1846C44.6854 18.1777 44.7601 18.1749 44.8336 18.1612C45.8803 17.9656 46.9968 18.8083 47.15 20.1261C47.2187 20.7168 47.0986 21.2525 46.8056 21.744C46.7603 21.8212 46.7162 21.8996 46.6708 21.9768C46.6157 21.9988 46.5728 22.0387 46.5336 22.0855C46.4147 22.2246 46.2737 22.3306 46.1254 22.4284C46.0764 22.4601 46.0323 22.5 45.9857 22.5358C45.9612 22.5427 45.9367 22.5454 45.9134 22.5565C45.5139 22.7479 45.0996 22.7644 44.678 22.6873C44.5346 22.6363 44.3912 22.5854 44.2478 22.5331C44.0836 22.4119 43.9108 22.3031 43.7613 22.1571C43.7441 22.1406 43.7159 22.1379 43.6938 22.1282C43.6902 22.1103 43.6902 22.0883 43.6816 22.0745C43.5566 21.8928 43.4303 21.7124 43.3041 21.532C43.2882 21.481 43.2747 21.4287 43.2563 21.3792C43.1607 21.1258 43.097 20.8642 43.0847 20.5874H43.0835Z" fill="#A67F2D"/>
<path id="Vector_8" d="M43.9941 49.1168C43.5357 49.1319 43.0785 49.1333 42.6202 49.1168C42.5846 49.0424 42.5528 48.9667 42.5135 48.8965C41.8848 47.7329 41.2303 46.5859 40.6322 45.4031C40.1077 44.3662 39.5317 43.3652 39.001 42.3324C39.0218 42.3187 39.0426 42.2994 39.0647 42.2925C39.5145 42.1493 39.8577 41.8464 40.1163 41.414C40.1457 41.3658 40.18 41.33 40.2303 41.3135C40.5489 41.3796 40.8676 41.4429 41.1838 41.5131C42.4118 41.7844 43.6399 42.0598 44.8679 42.3324C46.0886 42.6023 47.3093 42.8708 48.53 43.1393C48.465 43.3032 48.3731 43.4478 48.2787 43.591C47.5299 43.4271 46.7811 43.2633 46.0322 43.098C45.064 42.8846 44.0958 42.6698 43.1276 42.455C42.1434 42.2374 41.158 42.0212 40.1739 41.8037C40.1383 41.7954 40.0991 41.7679 40.0611 41.8216C40.1016 41.9001 40.1432 41.9799 40.1861 42.0598C41.4105 44.3222 42.6349 46.5859 43.8592 48.8483C43.9058 48.935 43.9487 49.0259 43.9928 49.1154L43.9941 49.1168Z" fill="#121110"/>
<path id="Vector_9" d="M53.8587 35.2479C53.8268 35.2603 53.7913 35.2644 53.7655 35.285C53.5792 35.4282 53.3746 35.5288 53.1613 35.6114C53.138 35.6196 53.1184 35.6403 53.0976 35.6554C52.9444 35.6651 52.7912 35.6747 52.6368 35.683C52.486 35.6623 52.3365 35.6417 52.1857 35.621C52.1306 35.6004 52.0742 35.5825 52.0203 35.5604C51.4038 35.3016 50.9981 34.8182 50.8094 34.1091C50.7739 33.9755 50.7567 33.8365 50.731 33.7001C50.7395 33.5322 50.7493 33.3628 50.7579 33.1948C50.8069 32.8395 50.9295 32.5173 51.1207 32.2282C51.1452 32.191 51.1624 32.1483 51.1832 32.1084C51.2114 32.0891 51.2433 32.0739 51.2665 32.0492C51.4185 31.8757 51.5876 31.7297 51.7801 31.6154C51.807 31.5989 51.823 31.5603 51.8438 31.5328C51.921 31.5342 51.9884 31.497 52.0595 31.4708C53.1687 31.0646 54.3428 31.8467 54.5475 33.1411C54.6602 33.8571 54.4837 34.4878 54.0401 35.022C53.9788 35.0964 53.8967 35.1501 53.8575 35.2479H53.8587Z" fill="#A67F2D"/>
<path id="Vector_10" d="M40.2314 41.3121C40.1811 41.3286 40.1468 41.3644 40.1174 41.4126C39.8588 41.8436 39.5156 42.1479 39.0658 42.2911C39.0425 42.298 39.0229 42.3173 39.0021 42.3311C38.7962 42.3435 38.5927 42.3806 38.3832 42.3558C37.1269 42.2099 36.3156 40.6126 37.0277 39.2618C37.0742 39.1737 37.1208 39.0869 37.1674 39.0002C37.2078 38.9685 37.2532 38.9437 37.2863 38.9052C37.4836 38.6738 37.7214 38.5168 37.9836 38.4012C38.0437 38.375 38.1111 38.3571 38.1356 38.2759C38.1932 38.331 38.2606 38.3089 38.3243 38.2993C38.5217 38.2704 38.7202 38.2717 38.9151 38.3117C39.0438 38.3378 39.17 38.3833 39.2975 38.4205C39.4176 38.5182 39.5389 38.6146 39.6848 38.6601C39.7301 38.7138 39.7755 38.7675 39.822 38.8184C39.9605 38.9671 40.0819 39.1324 40.1738 39.3224C40.4434 39.8773 40.4765 40.4543 40.2902 41.0491C40.2632 41.1359 40.2069 41.213 40.2301 41.3135L40.2314 41.3121Z" fill="#A67F2D"/>
<path id="Vector_11" d="M51.8442 31.5342C51.8234 31.5618 51.8074 31.6017 51.7805 31.6168C51.588 31.7311 51.4189 31.8771 51.2669 32.0506C51.2449 32.0767 51.2118 32.0905 51.1836 32.1098C51.1419 32.0396 51.0978 31.9721 51.0598 31.9019C50.6836 31.2093 50.3085 30.5166 49.9335 29.824C48.6172 27.395 47.3021 24.9661 45.9858 22.5371C46.0324 22.5013 46.0765 22.4613 46.1256 22.4297C46.2726 22.3319 46.4136 22.2259 46.5337 22.0868C46.5741 22.04 46.6158 22.0001 46.6709 21.978C47.1636 22.8855 47.6576 23.7915 48.1502 24.6989C49.3538 26.92 50.5561 29.1424 51.7596 31.3649C51.7903 31.4199 51.8172 31.4778 51.8454 31.5342H51.8442Z" fill="#121110"/>
<path id="Vector_12" d="M44.8962 50.7624C44.8693 50.783 44.8448 50.8078 44.8153 50.8229C44.5151 50.9744 44.2442 51.1755 44.0065 51.4329C43.9844 51.4577 43.9501 51.4687 43.9219 51.4866C43.738 51.1465 43.553 50.8064 43.3691 50.4677C43.3814 50.3947 43.4084 50.3272 43.4439 50.2639C43.6228 49.9444 43.8006 49.6222 43.9795 49.3028C43.9966 49.2725 44.0236 49.2491 44.0469 49.2229C44.0763 49.267 44.1106 49.3083 44.1351 49.3551C44.3901 49.8246 44.6425 50.2942 44.8962 50.7637V50.7624Z" fill="#121110"/>
<path id="Vector_13" d="M54.2976 57.4778C53.8589 57.2726 53.4863 56.9683 53.2044 56.5373C52.7191 55.7951 52.5622 54.9758 52.7669 54.0766C52.8134 53.9555 52.8686 53.8384 52.8674 53.7007C52.8919 53.6525 52.9188 53.6071 52.9409 53.5575C53.0843 53.2312 53.2755 52.9434 53.5133 52.6955C53.5549 52.6528 53.5868 52.5978 53.6236 52.5482C53.838 52.4435 54.0329 52.2976 54.2266 52.153C54.3859 52.0993 54.5415 52.0373 54.7033 51.9947C55.098 51.8914 55.4938 51.9024 55.8872 52.0139C55.9755 52.0387 56.06 52.0814 56.1544 52.0718C56.0882 52.3802 55.9694 52.6666 55.8689 52.9613C55.3762 54.4126 54.8786 55.8626 54.3834 57.3125C54.3626 57.3731 54.354 57.4392 54.2976 57.4764V57.4778Z" fill="#A67F2E"/>
<path id="Vector_14" d="M42.6496 29.2884C42.8948 29.2058 43.1423 29.1369 43.3985 29.1094C43.5431 29.1686 43.6939 29.1589 43.8446 29.1603C43.8924 29.1768 43.939 29.1975 43.9868 29.2113C44.8655 29.4812 45.5862 30.5359 45.3545 31.7807C45.3411 31.8523 45.3411 31.928 45.3349 32.0024C45.2197 32.1291 45.1891 32.3026 45.1339 32.4609C44.9758 32.7074 44.7895 32.9263 44.5885 33.1288C44.3998 33.2265 44.2111 33.3243 44.0223 33.4248C44.0015 33.4358 43.9868 33.4606 43.9696 33.4785C43.8949 33.484 43.8201 33.4813 43.7478 33.4964C43.5407 33.5405 43.3372 33.5322 43.1289 33.4964C42.9033 33.4579 42.6987 33.3601 42.4928 33.2637C42.3788 33.1494 42.255 33.053 42.119 32.9745C42.0822 32.925 42.0454 32.874 42.0074 32.8272C41.538 32.2365 41.3897 31.5535 41.5429 30.7838C41.5576 30.7122 41.5674 30.6392 41.5797 30.5662C41.6876 30.3955 41.7648 30.2041 41.8469 30.0182C41.9314 29.9328 42.0025 29.8364 42.0663 29.7318C42.1018 29.7097 42.141 29.6932 42.1704 29.6629C42.2795 29.55 42.4045 29.4646 42.5344 29.3861C42.5761 29.36 42.6129 29.3214 42.6509 29.2884H42.6496Z" fill="#A67F2D"/>
<path id="Vector_15" d="M43.9939 49.1167C43.5355 49.1319 43.0784 49.1332 42.62 49.1167C42.5453 49.1181 42.4705 49.1222 42.3957 49.1222C38.0645 49.1291 33.7332 49.1181 29.402 49.063C28.3627 49.0492 27.3233 49.03 26.2853 49.0148C26.1946 49.0148 26.1027 48.9983 26.0132 49.03C26.0401 49.1608 26.1223 49.2572 26.1762 49.3714C26.2669 49.5684 26.3882 49.7487 26.4507 49.9622C26.4997 50.0475 26.5524 50.1315 26.599 50.2197C27.1469 51.2648 27.6886 52.3154 28.2425 53.3564C30.3861 57.3868 32.6277 61.3511 34.8252 65.3443C34.8546 65.3994 34.8779 65.4627 34.9404 65.4999C35.0348 65.409 35.0838 65.2796 35.1488 65.1639C37.8353 60.3459 40.5194 55.5265 43.2046 50.7085C43.2524 50.6217 43.2929 50.5281 43.3689 50.4661C43.3811 50.3932 43.4081 50.3257 43.4436 50.2623C43.6226 49.9429 43.8003 49.6207 43.9792 49.3012C43.9964 49.2709 44.0233 49.2475 44.0454 49.2214C44.0662 49.1621 44.0515 49.125 43.9927 49.1167H43.9939ZM35.5974 56.7919C35.503 56.9641 35.3633 57.0522 35.177 57.0453C35.0471 57.0453 34.9368 56.9902 34.8534 56.8746C34.8216 56.8319 34.7934 56.7851 34.7652 56.7382C34.2088 55.8418 33.6523 54.9454 33.0971 54.049C33.064 53.9953 33.0285 53.943 33.0015 53.8852C32.9133 53.7006 32.9452 53.4913 33.0812 53.3481C33.2749 53.1443 33.5972 53.1554 33.7773 53.3743C33.8166 53.4225 33.8484 53.4776 33.8815 53.5313C34.4294 54.4112 34.976 55.2924 35.5238 56.1723C35.5434 56.2026 35.5618 56.2329 35.5802 56.2646C35.6831 56.4353 35.6954 56.6143 35.5986 56.7906L35.5974 56.7919ZM36.8916 55.8542C36.7176 56.0085 36.481 55.9947 36.3254 55.8171C36.291 55.7771 36.2629 55.7303 36.2334 55.6849C35.6807 54.7981 35.128 53.9099 34.5752 53.0232C34.5605 52.9998 34.547 52.9777 34.5335 52.9529C34.4502 52.807 34.433 52.6569 34.5152 52.5041C34.5997 52.3457 34.7321 52.281 34.8902 52.27C35.0299 52.2796 35.15 52.3333 35.2419 52.4545C35.2787 52.5041 35.3118 52.5591 35.3449 52.6128C35.8596 53.439 36.3756 54.2638 36.8904 55.09C36.9235 55.1437 36.9602 55.196 36.9884 55.2525C37.0999 55.4714 37.0619 55.7055 36.894 55.8542H36.8916Z" fill="#A67F2D"/>
<path id="Vector_16" d="M49.4788 46.5419C48.7385 47.9987 47.9982 49.4556 47.258 50.9124C47.2372 50.9523 47.2151 50.9923 47.193 51.0322C47.0423 50.9881 46.9111 50.9041 46.7861 50.8022C47.497 49.4019 48.2091 48.0015 48.9199 46.6011C48.9652 46.5116 49.0057 46.4207 49.0486 46.3298C49.192 46.4014 49.3354 46.4717 49.4788 46.5433V46.5419Z" fill="#191717"/>
<path id="Vector_17" d="M48.377 53.72C49.757 53.7131 51.1371 53.7062 52.5183 53.7007C52.6347 53.7007 52.7512 53.7021 52.8676 53.7034C52.8676 53.8398 52.8137 53.9582 52.7671 54.0794C52.3676 54.0794 51.9692 54.0807 51.5697 54.0835C50.4801 54.0904 49.3918 54.0986 48.3022 54.1069C48.3329 53.9802 48.3133 53.8411 48.377 53.7213V53.72Z" fill="#191717"/>
<path id="Vector_18" d="M41.5783 30.5663C39.7582 29.8186 37.937 29.0695 36.117 28.3218C34.9735 27.8523 33.83 27.3827 32.6866 26.9132C32.6633 26.9036 32.6412 26.8898 32.6191 26.8774C32.6767 26.6791 32.7601 26.496 32.8483 26.3142C33.6168 26.6323 34.3852 26.9504 35.1549 27.2671C37.3389 28.1649 39.5229 29.0613 41.7069 29.9591C41.7535 29.9783 41.8001 29.999 41.8467 30.0196C41.7646 30.2069 41.6873 30.3969 41.5795 30.5677L41.5783 30.5663Z" fill="#151413"/>
<path id="Vector_19" d="M44.6792 22.6858C44.6351 23.008 44.5897 23.3302 44.548 23.6524C44.4672 24.2707 44.3887 24.889 44.3103 25.5058C44.2416 26.0415 44.173 26.5758 44.1044 27.1114C44.0174 27.7944 43.9316 28.4774 43.8446 29.1603C43.6938 29.159 43.5431 29.1686 43.3984 29.1094C43.4928 28.3823 43.5872 27.6539 43.6803 26.9269C43.7539 26.3458 43.8249 25.7647 43.8985 25.185C43.972 24.6039 44.0492 24.0242 44.1252 23.4445C44.1657 23.1402 44.2073 22.8373 44.249 22.533C44.3924 22.5839 44.5358 22.6349 44.6792 22.6872V22.6858Z" fill="#191717"/>
<path id="Vector_20" d="M48.5322 43.1394C48.6008 43.0609 48.6695 42.9824 48.7369 42.9026C48.9146 42.7883 49.0715 42.6368 49.259 42.5418C49.2823 42.5294 49.2933 42.4826 49.3092 42.4523C49.3632 42.495 49.4195 42.4688 49.4735 42.4523C49.5838 42.4193 49.6953 42.3959 49.8093 42.3821C50.0225 42.3559 50.2321 42.3848 50.4429 42.4124C50.5802 42.4826 50.7187 42.5459 50.8682 42.5776C50.9356 42.6313 51.003 42.6836 51.0716 42.7373C52.0472 43.4878 52.1796 45.0383 51.3486 45.9856C51.2959 46.0448 51.242 46.104 51.1893 46.1619C50.9846 46.2858 50.7799 46.4111 50.5753 46.535C50.4539 46.5571 50.3338 46.5874 50.2113 46.5998C49.9649 46.6259 49.7198 46.608 49.4784 46.5405C49.335 46.4689 49.1916 46.3987 49.0482 46.3271C48.9489 46.2431 48.8398 46.1701 48.7504 46.0751C48.1621 45.4514 47.9929 44.6982 48.2111 43.8293C48.2319 43.748 48.2577 43.6696 48.281 43.5911C48.3741 43.4479 48.4672 43.3033 48.5322 43.1394Z" fill="#A67F2D"/>
<path id="Vector_21" d="M50.4434 42.4137C50.6873 41.4746 50.9324 40.5369 51.1738 39.5964C51.5011 38.3255 51.8258 37.0545 52.1518 35.7836C52.1653 35.7299 52.1751 35.6748 52.1862 35.6211C52.3369 35.6417 52.4864 35.6624 52.6372 35.6831C52.5134 36.176 52.3933 36.669 52.267 37.1605C51.8197 38.9052 51.3711 40.6484 50.9226 42.3917C50.9066 42.4536 50.887 42.5156 50.8699 42.5776C50.7203 42.5473 50.5819 42.4826 50.4446 42.4123L50.4434 42.4137Z" fill="#191717"/>
<path id="Vector_22" d="M50.7313 33.7001C49.5388 33.4385 48.3451 33.1782 47.1526 32.9152C46.4797 32.7665 45.8069 32.6137 45.1328 32.4622C45.188 32.3025 45.2186 32.1303 45.3338 32.0037C45.8388 32.1124 46.3449 32.2212 46.8499 32.3314C47.6563 32.509 48.4628 32.6866 49.268 32.8656C49.7643 32.9758 50.2619 33.086 50.7583 33.1947C50.7497 33.3627 50.7399 33.5321 50.7313 33.7001Z" fill="#191717"/>
<path id="Vector_23" d="M42.4915 33.2638C41.6618 34.8611 40.8308 36.4597 40.0011 38.057C39.8969 38.2581 39.7915 38.4577 39.6861 38.6588C39.5403 38.6133 39.4189 38.5169 39.2988 38.4192C40.006 37.0546 40.7132 35.6886 41.4191 34.324C41.652 33.8738 41.8848 33.4249 42.1177 32.9746C42.2537 33.0531 42.3775 33.1495 42.4915 33.2638Z" fill="#191717"/>
<path id="Vector_24" d="M50.5754 46.535C50.7801 46.4111 50.9848 46.2858 51.1895 46.1619C52.0008 47.7633 52.8134 49.3633 53.6247 50.9647C53.8257 51.3613 54.0255 51.7579 54.2253 52.1545C54.0316 52.299 53.838 52.445 53.6223 52.5496C53.3012 51.9204 52.9801 51.2911 52.6602 50.6604C51.9714 49.3027 51.2838 47.9437 50.5951 46.586C50.5865 46.5695 50.5816 46.5529 50.5742 46.535H50.5754Z" fill="#121110"/>
<path id="Vector_25" d="M44.5884 33.1301C44.7134 33.3711 44.8397 33.6121 44.9622 33.8544C46.3766 36.6469 47.7897 39.4394 49.2028 42.2319C49.2396 42.3049 49.2739 42.3793 49.3094 42.4522C49.2935 42.4825 49.2825 42.5293 49.2592 42.5417C49.0717 42.6367 48.9135 42.7882 48.7371 42.9025C48.3841 42.2071 48.0299 41.5118 47.6769 40.8164C46.4869 38.4687 45.298 36.1223 44.1092 33.7745C44.0602 33.6782 44.0148 33.5776 43.9683 33.4799C43.9854 33.462 44.0001 33.4372 44.021 33.4262C44.2097 33.3257 44.3984 33.2293 44.5872 33.1301H44.5884Z" fill="#121110"/>
</g>
<defs>
<clipPath id="clip0_429_1751">
<rect width="70" height="65" fill="white" transform="translate(0 0.5)"/>
</clipPath>
</defs>
</svg>
